<mxfile host="app.diagrams.net" modified="2023-10-24T05:15:48.873Z" agent="Mozilla/5.0 (Windows NT 10.0; Win64; x64) AppleWebKit/537.36 (KHTML, like Gecko) Chrome/118.0.0.0 Safari/537.36" etag="_35PRIhchzarX6pE6R9m" version="22.0.6" type="github">
  <diagram name="Page-1" id="2YBvvXClWsGukQMizWep">
    <mxGraphModel dx="1032" dy="539" grid="1" gridSize="10" guides="1" tooltips="1" connect="1" arrows="1" fold="1" page="1" pageScale="1" pageWidth="850" pageHeight="1100" math="0" shadow="0">
      <root>
        <mxCell id="0" />
        <mxCell id="1" parent="0" />
        <mxCell id="OnvNGImJKIXn_Hth7X96-2" value="" style="rounded=1;whiteSpace=wrap;html=1;" vertex="1" parent="1">
          <mxGeometry x="500" y="90" width="220" height="370" as="geometry" />
        </mxCell>
        <mxCell id="OnvNGImJKIXn_Hth7X96-3" value="" style="rounded=1;whiteSpace=wrap;html=1;" vertex="1" parent="1">
          <mxGeometry x="120" y="90" width="220" height="370" as="geometry" />
        </mxCell>
        <mxCell id="OnvNGImJKIXn_Hth7X96-4" value="" style="rounded=1;whiteSpace=wrap;html=1;" vertex="1" parent="1">
          <mxGeometry x="160" y="140" width="140" height="50" as="geometry" />
        </mxCell>
        <mxCell id="OnvNGImJKIXn_Hth7X96-5" value="" style="rounded=1;whiteSpace=wrap;html=1;" vertex="1" parent="1">
          <mxGeometry x="160" y="250" width="140" height="50" as="geometry" />
        </mxCell>
        <mxCell id="OnvNGImJKIXn_Hth7X96-6" value="" style="rounded=1;whiteSpace=wrap;html=1;" vertex="1" parent="1">
          <mxGeometry x="160" y="370" width="140" height="50" as="geometry" />
        </mxCell>
        <mxCell id="OnvNGImJKIXn_Hth7X96-7" value="" style="rounded=1;whiteSpace=wrap;html=1;" vertex="1" parent="1">
          <mxGeometry x="540" y="370" width="140" height="50" as="geometry" />
        </mxCell>
        <mxCell id="OnvNGImJKIXn_Hth7X96-8" value="" style="rounded=1;whiteSpace=wrap;html=1;" vertex="1" parent="1">
          <mxGeometry x="540" y="250" width="140" height="50" as="geometry" />
        </mxCell>
        <mxCell id="OnvNGImJKIXn_Hth7X96-9" value="" style="rounded=1;whiteSpace=wrap;html=1;" vertex="1" parent="1">
          <mxGeometry x="540" y="140" width="140" height="50" as="geometry" />
        </mxCell>
        <mxCell id="OnvNGImJKIXn_Hth7X96-10" value="&lt;b&gt;&lt;font style=&quot;font-size: 15px;&quot;&gt;ATM Client&lt;/font&gt;&lt;/b&gt;" style="text;html=1;strokeColor=none;fillColor=none;align=center;verticalAlign=middle;whiteSpace=wrap;rounded=0;" vertex="1" parent="1">
          <mxGeometry x="185" y="60" width="90" height="30" as="geometry" />
        </mxCell>
        <mxCell id="OnvNGImJKIXn_Hth7X96-11" value="&lt;b&gt;&lt;font style=&quot;font-size: 15px;&quot;&gt;ATM Server&lt;/font&gt;&lt;/b&gt;" style="text;html=1;strokeColor=none;fillColor=none;align=center;verticalAlign=middle;whiteSpace=wrap;rounded=0;" vertex="1" parent="1">
          <mxGeometry x="565" y="59" width="90" height="30" as="geometry" />
        </mxCell>
        <mxCell id="OnvNGImJKIXn_Hth7X96-12" value="&lt;b&gt;&lt;font style=&quot;font-size: 15px;&quot;&gt;&amp;nbsp;Client&lt;/font&gt;&lt;/b&gt;" style="text;html=1;strokeColor=none;fillColor=none;align=center;verticalAlign=middle;whiteSpace=wrap;rounded=0;" vertex="1" parent="1">
          <mxGeometry x="185" y="115" width="90" height="30" as="geometry" />
        </mxCell>
        <mxCell id="OnvNGImJKIXn_Hth7X96-13" value="&lt;b&gt;&lt;font style=&quot;font-size: 15px;&quot;&gt;&amp;nbsp;Client Stub&lt;/font&gt;&lt;/b&gt;" style="text;html=1;strokeColor=none;fillColor=none;align=center;verticalAlign=middle;whiteSpace=wrap;rounded=0;" vertex="1" parent="1">
          <mxGeometry x="181" y="222" width="90" height="30" as="geometry" />
        </mxCell>
        <mxCell id="OnvNGImJKIXn_Hth7X96-14" value="&lt;b&gt;&lt;font style=&quot;font-size: 15px;&quot;&gt;&amp;nbsp;Server Stub&lt;/font&gt;&lt;/b&gt;" style="text;html=1;strokeColor=none;fillColor=none;align=center;verticalAlign=middle;whiteSpace=wrap;rounded=0;" vertex="1" parent="1">
          <mxGeometry x="554" y="224" width="110" height="30" as="geometry" />
        </mxCell>
        <mxCell id="OnvNGImJKIXn_Hth7X96-15" value="&lt;b&gt;&lt;font style=&quot;font-size: 15px;&quot;&gt;Server&lt;/font&gt;&lt;/b&gt;" style="text;html=1;strokeColor=none;fillColor=none;align=center;verticalAlign=middle;whiteSpace=wrap;rounded=0;" vertex="1" parent="1">
          <mxGeometry x="565" y="115" width="90" height="30" as="geometry" />
        </mxCell>
        <mxCell id="OnvNGImJKIXn_Hth7X96-16" value="&lt;b&gt;&lt;font style=&quot;font-size: 15px;&quot;&gt;RPC Runtime&lt;/font&gt;&lt;/b&gt;" style="text;html=1;strokeColor=none;fillColor=none;align=center;verticalAlign=middle;whiteSpace=wrap;rounded=0;" vertex="1" parent="1">
          <mxGeometry x="180" y="344" width="100" height="30" as="geometry" />
        </mxCell>
        <mxCell id="OnvNGImJKIXn_Hth7X96-17" value="&lt;b&gt;&lt;font style=&quot;font-size: 15px;&quot;&gt;RPC Runtime&lt;/font&gt;&lt;/b&gt;" style="text;html=1;strokeColor=none;fillColor=none;align=center;verticalAlign=middle;whiteSpace=wrap;rounded=0;" vertex="1" parent="1">
          <mxGeometry x="559" y="345" width="100" height="30" as="geometry" />
        </mxCell>
      </root>
    </mxGraphModel>
  </diagram>
</mxfile>
